<?xml version="1.0" encoding="UTF-8"?>
<svg id="Layer_1" xmlns="http://www.w3.org/2000/svg" version="1.1" viewBox="0 0 245.14 45">
  <!-- Generator: Adobe Illustrator 30.0.0, SVG Export Plug-In . SVG Version: 2.1.1 Build 123)  -->
  <g>
    <path d="M23.38,30.15s-.05,0-.07,0c-.49-.03-.91-.37-1.04-.85l-3.72-13.65-1.91,6.37c-.15.49-.59.82-1.1.82h-7.14c-.64,0-1.15-.52-1.15-1.15s.52-1.15,1.15-1.15h6.29l2.82-9.4c.15-.49.59-.82,1.1-.82,0,0,0,0,.01,0,.51,0,.96.35,1.1.85l3.89,14.25,1.68-4.15c.18-.43.6-.72,1.07-.72h5.72c.64,0,1.15.52,1.15,1.15s-.52,1.15-1.15,1.15h-4.95l-2.67,6.59c-.18.44-.6.72-1.07.72Z"/>
    <path d="M20.23,40.46C9.08,40.46,0,31.39,0,20.23S9.08,0,20.23,0s20.23,9.08,20.23,20.23-9.08,20.23-20.23,20.23ZM20.23,2.3C10.34,2.3,2.3,10.34,2.3,20.23s8.04,17.93,17.93,17.93,17.93-8.04,17.93-17.93S30.12,2.3,20.23,2.3Z"/>
  </g>
  <g>
    <path d="M55.81,20.2L50.4.27h3.21l2.88,11.42c.18.7.34,1.44.49,2.19.15.76.3,1.52.45,2.3.15.78.29,1.55.42,2.33h-.45c.14-.78.29-1.55.44-2.33.15-.78.31-1.54.47-2.3.16-.76.33-1.49.52-2.19L61.79.27h3.34l2.93,11.42c.19.7.36,1.44.52,2.19.16.76.32,1.52.47,2.3.16.78.31,1.55.45,2.33h-.48c.14-.78.28-1.55.43-2.33.14-.78.3-1.54.46-2.3.16-.76.33-1.49.49-2.19l2.88-11.42h3.24l-5.43,19.93h-3.52l-3.17-11.81c-.24-.93-.46-1.93-.67-3.02-.21-1.09-.41-2.28-.63-3.58h.7c-.22,1.25-.43,2.4-.61,3.46-.18,1.06-.41,2.11-.69,3.14l-3.16,11.81h-3.53Z"/>
    <path d="M84.26,20.53c-1.49,0-2.78-.24-3.88-.71s-1.96-1.15-2.58-2.03c-.62-.88-.96-1.92-1.02-3.14h3.06c.06.72.3,1.32.7,1.79s.93.82,1.59,1.06c.65.23,1.36.35,2.11.35.85,0,1.6-.13,2.25-.39.66-.26,1.17-.64,1.56-1.12.38-.49.58-1.05.58-1.69,0-.58-.17-1.05-.5-1.42-.33-.37-.79-.68-1.35-.92-.57-.25-1.21-.46-1.93-.65l-2.33-.64c-1.63-.44-2.9-1.08-3.82-1.94-.91-.86-1.37-1.97-1.37-3.33,0-1.15.31-2.16.93-3.02.62-.86,1.46-1.53,2.53-2.01C81.85.24,83.05,0,84.39,0s2.57.24,3.61.72c1.04.48,1.85,1.13,2.45,1.96.59.83.9,1.77.93,2.84h-2.97c-.1-.91-.52-1.61-1.26-2.11-.75-.5-1.68-.75-2.82-.75-.8,0-1.5.13-2.09.37s-1.05.6-1.38,1.04c-.33.44-.49.94-.49,1.5,0,.63.19,1.14.58,1.53.39.39.86.7,1.42.92s1.09.41,1.6.54l1.94.51c.63.16,1.29.38,1.96.65.67.27,1.3.62,1.87,1.06.57.43,1.03.97,1.38,1.61.35.64.53,1.41.53,2.31,0,1.12-.29,2.13-.87,3.01-.58.88-1.42,1.58-2.52,2.08-1.1.5-2.43.76-3.99.76Z"/>
    <path d="M101.93,20.47c-1.72,0-3.26-.41-4.62-1.22-1.36-.82-2.43-1.99-3.21-3.52s-1.17-3.36-1.17-5.48.39-3.96,1.17-5.49,1.85-2.7,3.21-3.52C98.67.41,100.21,0,101.93,0s3.26.41,4.61,1.23c1.35.82,2.42,2,3.2,3.52.78,1.53,1.17,3.36,1.17,5.49s-.39,3.95-1.17,5.48c-.78,1.53-1.85,2.7-3.2,3.52-1.35.82-2.89,1.22-4.61,1.22ZM101.93,17.68c1.13,0,2.15-.28,3.04-.85.9-.57,1.61-1.4,2.13-2.51.52-1.11.78-2.47.78-4.07s-.26-2.99-.78-4.1c-.52-1.11-1.23-1.95-2.13-2.52-.9-.57-1.91-.85-3.04-.85s-2.16.29-3.06.86c-.9.57-1.61,1.41-2.13,2.52-.52,1.11-.78,2.47-.78,4.09s.26,2.96.78,4.07c.52,1.11,1.23,1.94,2.13,2.51.9.57,1.92.86,3.06.86Z"/>
    <path d="M112.15,20.2v-2.21l6.77-7c.7-.73,1.28-1.38,1.74-1.94.46-.56.82-1.1,1.06-1.62.24-.52.36-1.07.36-1.66,0-.67-.15-1.24-.46-1.73s-.73-.85-1.26-1.11-1.13-.39-1.81-.39-1.32.15-1.85.43c-.53.29-.93.7-1.22,1.22-.29.53-.43,1.15-.43,1.86h-2.93c0-1.21.28-2.28.84-3.19.56-.91,1.33-1.62,2.3-2.13C116.24.25,117.35,0,118.6,0s2.38.25,3.34.75c.96.5,1.71,1.18,2.25,2.03.54.85.82,1.82.82,2.9,0,.73-.14,1.44-.41,2.14-.27.7-.75,1.48-1.43,2.35-.68.87-1.64,1.94-2.88,3.18l-3.91,4.08v.16h8.94v2.61h-13.16Z"/>
  </g>
  <g>
    <path d="M54.8,25.5v14.89h-3.05v-14.89h3.05Z"/>
    <path d="M60.42,33.92v6.46h-3v-11.17h2.83l.05,2.79h-.18c.29-.93.74-1.65,1.33-2.16s1.37-.76,2.31-.76c.77,0,1.45.17,2.02.5.58.34,1.02.82,1.34,1.45.32.63.48,1.38.48,2.25v7.1h-3v-6.58c0-.69-.18-1.23-.54-1.63-.36-.39-.85-.59-1.48-.59-.42,0-.79.09-1.12.27-.33.18-.59.45-.77.8-.18.34-.28.77-.28,1.27Z"/>
    <path d="M75.71,29.22v2.29h-6.62v-2.29h6.62ZM70.62,26.56h3v10.56c0,.35.08.62.24.79s.42.25.79.25c.11,0,.27-.01.48-.04.21-.03.36-.06.47-.08l.43,2.25c-.33.1-.66.17-.99.21-.33.04-.64.06-.94.06-1.12,0-1.97-.27-2.57-.82-.59-.54-.89-1.33-.89-2.35v-10.82Z"/>
    <path d="M82.5,40.61c-1.14,0-2.12-.23-2.95-.7-.83-.47-1.46-1.13-1.9-1.99-.44-.86-.66-1.88-.66-3.06s.22-2.16.66-3.03c.44-.86,1.06-1.54,1.87-2.03.81-.48,1.75-.73,2.84-.73.73,0,1.41.11,2.05.35.63.23,1.19.58,1.67,1.05.48.47.85,1.06,1.12,1.76.27.71.41,1.54.41,2.5v.84h-9.38v-1.88h7.91l-1.4.5c0-.58-.09-1.08-.27-1.51-.18-.43-.44-.76-.79-1-.35-.24-.78-.35-1.29-.35s-.96.12-1.32.36c-.36.24-.64.57-.82.97-.19.41-.28.88-.28,1.4v1.33c0,.65.11,1.19.32,1.63.22.44.52.77.91.99.39.22.84.33,1.36.33.35,0,.67-.05.96-.15.29-.1.53-.25.74-.45.2-.2.36-.44.46-.72l2.72.51c-.18.61-.49,1.15-.94,1.61s-1,.82-1.67,1.08c-.67.25-1.44.38-2.31.38Z"/>
    <path d="M94.61,44.8c-.93,0-1.74-.12-2.44-.35-.69-.24-1.26-.56-1.69-.97s-.73-.88-.9-1.41l2.58-.72c.09.21.24.41.44.6s.46.36.78.48c.33.13.73.19,1.21.19.77,0,1.37-.18,1.8-.53s.65-.89.65-1.63v-2.06h-.23c-.13.3-.33.59-.58.87-.25.28-.58.51-.99.68-.41.18-.92.27-1.52.27-.84,0-1.6-.2-2.29-.59-.69-.39-1.23-.99-1.64-1.8-.41-.8-.61-1.83-.61-3.06s.21-2.31.62-3.16.97-1.48,1.66-1.91c.69-.43,1.45-.64,2.27-.64.63,0,1.15.1,1.58.31s.77.47,1.03.79c.26.32.46.62.59.91h.13v-1.88h2.95v11.08c0,1.01-.23,1.84-.69,2.51-.47.67-1.1,1.17-1.92,1.5-.81.33-1.74.5-2.8.5ZM94.66,37.95c.51,0,.95-.13,1.3-.38.36-.25.63-.62.82-1.09.19-.48.28-1.05.28-1.71s-.09-1.23-.28-1.73c-.19-.49-.46-.88-.82-1.15-.36-.27-.79-.41-1.3-.41s-.97.14-1.32.42c-.36.28-.63.67-.81,1.16s-.27,1.06-.27,1.7.09,1.22.27,1.69.45.84.82,1.1c.36.26.8.39,1.32.39Z"/>
    <path d="M102.57,40.39v-11.17h2.9v1.95h.12c.21-.69.55-1.22,1.03-1.57.48-.35,1.04-.53,1.66-.53.15,0,.32,0,.5.02.18.02.34.04.47.08v2.68c-.13-.05-.33-.08-.58-.11-.25-.03-.5-.04-.72-.04-.45,0-.86.1-1.23.3s-.65.47-.85.82c-.21.35-.31.76-.31,1.22v6.35h-3Z"/>
    <path d="M113.74,40.61c-.71,0-1.34-.12-1.9-.37-.56-.25-1.01-.62-1.33-1.12-.32-.5-.48-1.11-.48-1.86,0-.62.11-1.14.34-1.56s.54-.76.94-1.01c.4-.25.85-.45,1.35-.58.5-.13,1.03-.23,1.58-.28.65-.07,1.17-.13,1.56-.18s.69-.15.87-.27c.18-.12.28-.3.28-.54v-.05c0-.32-.07-.59-.2-.81-.13-.22-.33-.39-.59-.5-.26-.11-.58-.18-.96-.18s-.72.06-1.01.18c-.28.12-.52.27-.7.47-.18.19-.31.41-.4.65l-2.75-.45c.19-.65.51-1.21.96-1.66.45-.45,1-.8,1.66-1.04.66-.24,1.41-.36,2.24-.36.6,0,1.18.07,1.75.21.56.15,1.07.37,1.52.67.45.3.81.69,1.07,1.17s.39,1.06.39,1.73v7.52h-2.84v-1.55h-.1c-.18.35-.42.65-.72.91-.3.26-.66.47-1.08.62-.42.15-.91.23-1.46.23ZM114.59,38.5c.47,0,.89-.09,1.25-.28s.63-.44.83-.76c.2-.32.3-.67.3-1.07v-1.21c-.08.07-.22.13-.4.18-.18.05-.38.1-.6.14s-.44.08-.65.11-.4.06-.57.08c-.37.05-.69.14-.97.26s-.5.28-.65.48c-.15.19-.23.45-.23.75,0,.29.07.53.22.73.15.2.34.34.6.44.25.1.54.15.87.15Z"/>
    <path d="M128.05,29.22v2.29h-6.62v-2.29h6.62ZM122.96,26.56h3v10.56c0,.35.08.62.24.79s.42.25.79.25c.11,0,.27-.01.48-.04.21-.03.36-.06.47-.08l.43,2.25c-.33.1-.66.17-.99.21-.33.04-.64.06-.94.06-1.12,0-1.97-.27-2.57-.82-.59-.54-.89-1.33-.89-2.35v-10.82Z"/>
    <path d="M131.49,27.76c-.45,0-.84-.15-1.16-.45-.32-.3-.48-.66-.48-1.09s.16-.79.48-1.09c.32-.3.71-.45,1.16-.45s.84.15,1.17.45c.32.3.48.66.48,1.09s-.16.79-.48,1.09c-.33.3-.71.45-1.17.45ZM129.99,40.39v-11.17h2.99v11.17h-2.99Z"/>
    <path d="M140.54,40.61c-1.12,0-2.09-.24-2.91-.72-.82-.48-1.45-1.16-1.89-2.02s-.66-1.87-.66-3.01.22-2.17.66-3.03,1.07-1.54,1.89-2.02c.82-.48,1.79-.73,2.91-.73s2.1.24,2.91.73c.82.48,1.45,1.15,1.89,2.02s.67,1.87.67,3.03-.22,2.15-.67,3.01-1.07,1.54-1.89,2.02c-.82.48-1.78.72-2.91.72ZM140.54,38.25c.54,0,.98-.15,1.34-.45.36-.3.63-.7.81-1.22.18-.51.27-1.1.27-1.74s-.09-1.25-.27-1.76c-.18-.51-.45-.92-.81-1.21-.36-.29-.8-.44-1.34-.44s-.97.15-1.33.44c-.36.29-.63.7-.8,1.21-.18.51-.27,1.1-.27,1.76s.09,1.23.27,1.74c.18.52.44.92.8,1.22.36.3.8.45,1.33.45Z"/>
    <path d="M151.08,33.92v6.46h-2.99v-11.17h2.82l.05,2.79h-.18c.3-.93.74-1.65,1.34-2.16s1.37-.76,2.32-.76c.77,0,1.45.17,2.02.5s1.02.82,1.34,1.45c.32.63.47,1.38.47,2.25v7.1h-2.99v-6.58c0-.69-.18-1.23-.54-1.63-.36-.39-.85-.59-1.48-.59-.42,0-.79.09-1.12.27-.33.18-.59.45-.77.8-.18.34-.27.77-.27,1.27Z"/>
    <path d="M166.04,40.39v-14.89h5.34c1.14,0,2.1.21,2.87.64.76.42,1.34,1,1.72,1.73.38.73.57,1.55.57,2.47s-.19,1.74-.57,2.47c-.38.73-.96,1.31-1.72,1.73-.77.42-1.72.63-2.88.63h-3.65v-1.93h3.43c.73,0,1.32-.13,1.78-.38.45-.25.78-.6.99-1.04.21-.44.32-.94.32-1.49s-.1-1.06-.32-1.49c-.21-.44-.54-.78-1-1.02s-1.06-.37-1.8-.37h-2.8v12.94h-2.28Z"/>
    <path d="M181.19,25.5v14.89h-2.2v-14.89h2.2Z"/>
    <path d="M187.28,40.64c-.71,0-1.34-.13-1.92-.39s-1.02-.65-1.36-1.15c-.33-.5-.5-1.12-.5-1.86,0-.63.13-1.15.37-1.56.25-.41.57-.73.99-.97s.88-.42,1.38-.54c.51-.12,1.03-.21,1.55-.27.66-.08,1.2-.15,1.61-.19.42-.05.72-.13.91-.25.2-.12.3-.3.3-.56v-.06c0-.42-.08-.77-.24-1.06-.16-.29-.4-.51-.71-.67-.32-.16-.71-.24-1.19-.24s-.9.08-1.25.22c-.35.15-.63.34-.85.57-.21.24-.38.48-.48.73l-2.07-.54c.25-.67.61-1.2,1.09-1.61.47-.41,1.01-.7,1.63-.89s1.25-.28,1.9-.28c.45,0,.93.05,1.44.16.5.11.98.3,1.43.58.44.28.81.67,1.09,1.18s.42,1.17.42,1.98v7.41h-2.13v-1.53h-.11c-.15.28-.37.56-.65.84s-.65.5-1.08.68c-.44.18-.96.26-1.57.26ZM187.77,38.87c.6,0,1.11-.11,1.54-.35.43-.23.75-.54.98-.93.22-.39.34-.8.34-1.23v-1.43c-.08.08-.23.15-.45.21-.22.07-.48.12-.77.17-.28.05-.56.09-.83.13-.27.03-.49.06-.66.08-.41.05-.79.15-1.13.27s-.62.31-.82.54-.3.54-.3.93c0,.35.09.65.27.89.18.24.43.42.74.54.31.12.67.18,1.09.18Z"/>
    <path d="M200.55,29.22v1.79h-6.05v-1.79h6.05ZM196.12,26.56h2.2v10.81c0,.45.09.77.28.98.19.21.5.31.93.31.11,0,.26-.01.45-.04.19-.03.35-.05.48-.08l.39,1.76c-.23.08-.48.14-.75.18-.26.04-.53.05-.79.05-1.01,0-1.8-.26-2.36-.79-.56-.52-.84-1.26-.84-2.2v-10.99Z"/>
    <path d="M207.72,29.22v1.79h-6.81v-1.79h6.81ZM203.02,40.39v-12.45c0-.69.16-1.27.47-1.74.31-.47.72-.82,1.23-1.05.5-.23,1.05-.35,1.64-.35.45,0,.83.04,1.14.11s.55.14.7.19l-.51,1.78c-.11-.03-.24-.07-.39-.11-.16-.04-.35-.05-.59-.05-.52,0-.9.13-1.13.39-.24.26-.35.63-.35,1.13v12.15h-2.2Z"/>
    <path d="M214.09,40.62c-1.05,0-1.96-.24-2.74-.72s-1.39-1.15-1.82-2.02c-.43-.87-.65-1.87-.65-3.02s.22-2.17.65-3.04c.43-.87,1.04-1.54,1.82-2.02.78-.48,1.7-.72,2.74-.72s1.97.24,2.75.72c.78.48,1.39,1.15,1.82,2.02.43.87.65,1.88.65,3.04s-.21,2.15-.65,3.02c-.43.86-1.04,1.54-1.82,2.02s-1.7.72-2.75.72ZM214.09,38.76c.68,0,1.24-.18,1.68-.53.44-.36.78-.83.99-1.42.22-.59.32-1.24.32-1.94s-.1-1.37-.32-1.96c-.21-.6-.55-1.07-.99-1.43-.44-.36-1-.53-1.68-.53s-1.23.18-1.67.53-.77.83-.99,1.42c-.21.59-.32,1.25-.32,1.97s.11,1.35.32,1.94c.22.59.55,1.06.99,1.42s1,.53,1.67.53Z"/>
    <path d="M221.75,40.39v-11.17h2.13v1.8h.12c.2-.61.56-1.09,1.08-1.44.51-.34,1.09-.52,1.75-.52.14,0,.3,0,.48.01s.33.02.45.04v2.1c-.08-.03-.24-.05-.46-.08s-.45-.04-.69-.04c-.5,0-.96.11-1.37.32s-.72.51-.95.88c-.23.38-.34.81-.34,1.3v6.78h-2.2Z"/>
    <path d="M229.93,40.39v-11.17h2.09l.06,2.59h-.18c.16-.63.41-1.15.74-1.56.33-.41.72-.71,1.17-.91.45-.2.91-.3,1.4-.3.81,0,1.47.25,1.97.75.5.5.84,1.2,1.01,2.1h-.28c.15-.61.4-1.13.76-1.56s.79-.75,1.3-.97,1.06-.33,1.64-.33c.66,0,1.25.14,1.79.43.54.28.96.71,1.28,1.28s.47,1.27.47,2.12v7.53h-2.2v-7.31c0-.75-.21-1.29-.62-1.62-.42-.33-.91-.5-1.47-.5-.46,0-.85.1-1.19.29s-.59.46-.77.8-.27.74-.27,1.18v7.15h-2.17v-7.45c0-.6-.19-1.08-.57-1.44-.38-.36-.87-.54-1.46-.54-.41,0-.79.1-1.14.28-.34.19-.63.47-.84.84s-.31.82-.31,1.36v6.94h-2.2Z"/>
  </g>
</svg>