<svg width="1579" height="250" viewBox="0 0 1579 250" fill="none" xmlns="http://www.w3.org/2000/svg">
<path d="M232.71 11.83L179.74 147.03L126.49 2.44L70.05 146.71L21.91 11.83H0L69.19 201.25L125.96 56.98L179.16 201.4L254.61 11.83H232.71Z" fill="black"/>
<path d="M339.27 108.07C330.44 100.85 284.16 76.81 278.21 72.65C272.28 68.51 269.3 62.47 269.3 54.55C269.3 46.63 272.32 40.17 278.35 35.23C284.38 30.25 291.72 27.79 300.37 27.79C305.94 27.79 310.71 28.86 314.68 31.04C318.64 33.21 322.43 36.73 326.02 41.59L327.92 44.54C328.45 44.92 329.19 45.82 330.09 47.24L346.03 36.98C340.8 27.79 334.28 20.81 326.43 16.03C318.6 11.26 310.18 8.87 301.18 8.87C285.86 8.87 273.33 13.18 263.6 21.84C253.88 30.49 249.03 41.59 249.03 55.1C249.03 67.88 253.42 77.75 262.25 84.67C271.09 91.6 315.12 114.46 321.97 119.15C328.82 123.82 332.23 130.76 332.23 139.95C332.23 150.4 328.79 159.08 321.84 166C314.9 172.96 306.11 176.41 295.5 176.41C286.14 176.41 278.39 173.53 272.27 167.76C266.14 161.99 261.81 153.73 259.29 142.92L239.83 148.87C241.53 156.16 244 162.66 247.21 168.33C250.5 174.11 254.58 179.01 259.43 183.03C269.06 191.06 281.27 195.07 296.05 195.07C311.72 195.07 325.03 189.69 336.04 178.98C347.02 168.26 352.51 155.16 352.51 139.65C352.51 125.79 348.1 115.25 339.27 108.06V108.07Z" fill="black"/>
<path d="M566.15 95.67C570.69 94.38 575.51 93.73 580.67 93.73C594.4 93.73 605.51 98.17 613.98 107.05C622.48 115.89 626.75 126.34 626.75 138.38C626.75 146.84 624.71 154.77 620.64 162.18C616.59 169.58 608.71 179.64 596.99 192.27L559.85 232.36H628.76V246.78H527.38L584.42 185.18C595.98 172.77 603.51 163.59 607 157.6C610.5 151.63 612.23 145.31 612.23 138.7C612.23 130.3 609.11 123.07 602.83 117.02C596.58 110.98 588.91 107.94 579.83 107.94C574.64 107.94 569.93 108.88 565.68 110.76C566.05 107.14 566.19 97.02 566.14 95.67H566.15Z" fill="black"/>
<path d="M457.12 0C400.67 0 354.92 45.63 354.92 101.92C354.92 158.21 400.68 203.84 457.12 203.84C513.56 203.84 559.32 158.21 559.32 101.92C559.32 45.63 513.57 0 457.12 0ZM457.12 184.9C411.78 184.9 375.02 147.75 375.02 101.92C375.02 56.09 411.78 18.94 457.12 18.94C502.46 18.94 539.22 56.09 539.22 101.92C539.22 147.75 502.46 184.9 457.12 184.9Z" fill="black"/>
<path d="M538.95 95.46L509.2 95.53L494.37 122.22L457.36 31.99L424.06 106.11L375.12 106.01C375.32 110.09 375.81 114.1 376.57 118L431.8 118.12L456.85 62.37L492.73 149.84L516.26 107.51L539.02 107.45C539.14 105.62 539.22 103.78 539.22 101.93C539.22 99.75 539.11 97.6 538.95 95.46Z" fill="black"/>
<path d="M706.88 208.7V71.0985H724.981V208.7H706.88ZM753.549 208.7V109.147H770.357V128.54L767.586 126.878C770.049 120.598 773.989 115.734 779.407 112.287C784.948 108.716 791.412 106.93 798.8 106.93C805.942 106.93 812.283 108.531 817.824 111.732C823.489 114.934 827.921 119.367 831.123 125.031C834.447 130.695 836.11 137.098 836.11 144.24V208.7H818.748V149.781C818.748 144.24 817.763 139.561 815.793 135.743C813.823 131.926 810.991 128.971 807.297 126.878C803.726 124.661 799.601 123.553 794.922 123.553C790.243 123.553 786.056 124.661 782.362 126.878C778.791 128.971 775.959 131.988 773.866 135.928C771.773 139.745 770.726 144.363 770.726 149.781V208.7H753.549ZM901.139 209.808C891.411 209.808 883.9 207.038 878.605 201.497C873.434 195.956 870.848 188.137 870.848 178.04V125.585H852.747V109.147H856.441C860.874 109.147 864.383 107.792 866.969 105.083C869.555 102.374 870.848 98.8035 870.848 94.3707V86.2439H888.025V109.147H910.374V125.585H888.025V177.486C888.025 180.81 888.517 183.704 889.503 186.167C890.611 188.629 892.396 190.599 894.859 192.077C897.321 193.431 900.585 194.109 904.648 194.109C905.51 194.109 906.556 194.047 907.788 193.924C909.142 193.801 910.374 193.678 911.482 193.555V208.7C909.881 209.069 908.096 209.316 906.126 209.439C904.155 209.685 902.493 209.808 901.139 209.808ZM977.02 210.916C967.416 210.916 958.858 208.638 951.347 204.082C943.836 199.527 937.925 193.308 933.616 185.428C929.306 177.424 927.151 168.497 927.151 158.646C927.151 148.672 929.244 139.807 933.431 132.049C937.74 124.292 943.528 118.197 950.793 113.764C958.181 109.208 966.431 106.93 975.542 106.93C982.93 106.93 989.456 108.285 995.121 110.994C1000.91 113.579 1005.77 117.15 1009.71 121.706C1013.78 126.139 1016.85 131.249 1018.95 137.036C1021.16 142.701 1022.27 148.611 1022.27 154.768C1022.27 156.122 1022.15 157.661 1021.9 159.385C1021.78 160.986 1021.59 162.525 1021.35 164.003H939.711V149.227H1011.37L1003.25 155.876C1004.36 149.473 1003.74 143.747 1001.4 138.699C999.061 133.65 995.613 129.648 991.057 126.693C986.501 123.738 981.33 122.26 975.542 122.26C969.755 122.26 964.46 123.738 959.658 126.693C954.856 129.648 951.1 133.896 948.392 139.437C945.806 144.855 944.759 151.32 945.252 158.831C944.759 166.096 945.867 172.499 948.576 178.04C951.408 183.458 955.349 187.706 960.397 190.784C965.569 193.739 971.171 195.217 977.205 195.217C983.854 195.217 989.456 193.678 994.012 190.599C998.568 187.521 1002.26 183.581 1005.09 178.779L1019.5 186.167C1017.53 190.723 1014.45 194.909 1010.27 198.726C1006.2 202.42 1001.34 205.375 995.675 207.592C990.134 209.808 983.915 210.916 977.02 210.916ZM1092.14 249.334C1085.12 249.334 1078.59 248.226 1072.56 246.009C1066.65 243.793 1061.54 240.715 1057.23 236.774C1053.04 232.957 1049.84 228.463 1047.62 223.291L1063.69 215.903C1065.42 220.582 1068.68 224.523 1073.48 227.724C1078.41 231.049 1084.56 232.711 1091.95 232.711C1097.62 232.711 1102.73 231.603 1107.28 229.386C1111.96 227.293 1115.65 224.092 1118.36 219.782C1121.07 215.595 1122.43 210.485 1122.43 204.452V182.103L1125.57 185.428C1122.12 192.2 1117.13 197.372 1110.61 200.943C1104.2 204.513 1097.12 206.299 1089.37 206.299C1080.01 206.299 1071.63 204.144 1064.25 199.834C1056.86 195.402 1051.07 189.43 1046.88 181.918C1042.7 174.284 1040.6 165.85 1040.6 156.615C1040.6 147.256 1042.7 138.822 1046.88 131.311C1051.07 123.8 1056.8 117.889 1064.06 113.579C1071.45 109.147 1079.82 106.93 1089.18 106.93C1096.94 106.93 1103.96 108.716 1110.24 112.287C1116.64 115.734 1121.75 120.537 1125.57 126.693L1122.98 131.311V109.147H1139.79V204.452C1139.79 213.071 1137.76 220.767 1133.69 227.539C1129.63 234.312 1123.97 239.606 1116.7 243.424C1109.56 247.364 1101.37 249.334 1092.14 249.334ZM1090.84 189.676C1096.75 189.676 1102.05 188.198 1106.73 185.243C1111.53 182.288 1115.35 178.348 1118.18 173.422C1121.01 168.374 1122.43 162.771 1122.43 156.615C1122.43 150.581 1121.01 145.04 1118.18 139.992C1115.35 134.943 1111.53 130.941 1106.73 127.986C1102.05 125.031 1096.75 123.553 1090.84 123.553C1084.81 123.553 1079.33 125.031 1074.4 127.986C1069.48 130.941 1065.6 134.943 1062.77 139.992C1060.06 144.917 1058.71 150.458 1058.71 156.615C1058.71 162.771 1060.06 168.374 1062.77 173.422C1065.6 178.348 1069.42 182.288 1074.22 185.243C1079.15 188.198 1084.69 189.676 1090.84 189.676ZM1166.42 208.7V109.147H1183.23V127.432L1181.38 124.846C1183.72 119.182 1187.29 114.996 1192.09 112.287C1196.89 109.455 1202.74 108.038 1209.64 108.038H1215.73V124.292H1207.05C1200.03 124.292 1194.37 126.508 1190.06 130.941C1185.75 135.251 1183.6 141.408 1183.6 149.411V208.7H1166.42ZM1260.17 210.916C1253.65 210.916 1247.86 209.747 1242.81 207.407C1237.89 204.944 1234.01 201.62 1231.18 197.433C1228.34 193.124 1226.93 188.198 1226.93 182.657C1226.93 177.363 1228.04 172.622 1230.25 168.435C1232.59 164.126 1236.16 160.493 1240.96 157.538C1245.89 154.583 1252.05 152.49 1259.43 151.258L1296.37 145.163V159.57L1263.31 165.111C1256.91 166.219 1252.23 168.251 1249.28 171.206C1246.44 174.161 1245.03 177.794 1245.03 182.103C1245.03 186.167 1246.63 189.553 1249.83 192.262C1253.16 194.971 1257.28 196.325 1262.21 196.325C1268.49 196.325 1273.9 195.032 1278.46 192.446C1283.14 189.737 1286.77 186.105 1289.36 181.549C1292.07 176.993 1293.42 171.945 1293.42 166.404V141.1C1293.42 135.682 1291.39 131.311 1287.32 127.986C1283.38 124.538 1278.15 122.814 1271.63 122.814C1265.96 122.814 1260.91 124.292 1256.48 127.247C1252.17 130.079 1248.97 133.896 1246.88 138.699L1231.91 130.941C1233.76 126.385 1236.72 122.322 1240.78 118.751C1244.84 115.057 1249.58 112.163 1255 110.07C1260.42 107.977 1266.08 106.93 1271.99 106.93C1279.63 106.93 1286.34 108.408 1292.13 111.363C1297.91 114.195 1302.41 118.197 1305.61 123.369C1308.93 128.417 1310.6 134.327 1310.6 141.1V208.7H1293.79V189.861L1296.93 190.969C1294.84 194.909 1292 198.357 1288.43 201.312C1284.86 204.267 1280.68 206.607 1275.87 208.331C1271.07 210.054 1265.84 210.916 1260.17 210.916ZM1375.88 209.808C1366.15 209.808 1358.64 207.038 1353.34 201.497C1348.17 195.956 1345.58 188.137 1345.58 178.04V125.585H1327.48V109.147H1331.18C1335.61 109.147 1339.12 107.792 1341.71 105.083C1344.29 102.374 1345.58 98.8035 1345.58 94.3707V86.2439H1362.76V109.147H1385.11V125.585H1362.76V177.486C1362.76 180.81 1363.25 183.704 1364.24 186.167C1365.35 188.629 1367.13 190.599 1369.6 192.077C1372.06 193.431 1375.32 194.109 1379.38 194.109C1380.25 194.109 1381.29 194.047 1382.52 193.924C1383.88 193.801 1385.11 193.678 1386.22 193.555V208.7C1384.62 209.069 1382.83 209.316 1380.86 209.439C1378.89 209.685 1377.23 209.808 1375.88 209.808ZM1453.23 210.916C1443.63 210.916 1434.95 208.7 1427.19 204.267C1419.43 199.711 1413.28 193.493 1408.72 185.612C1404.17 177.732 1401.89 168.805 1401.89 158.831C1401.89 148.857 1404.1 139.992 1408.54 132.234C1413.09 124.477 1419.25 118.32 1427.01 113.764C1434.76 109.208 1443.51 106.93 1453.23 106.93C1462.84 106.93 1471.52 109.208 1479.28 113.764C1487.03 118.197 1493.13 124.292 1497.56 132.049C1502.12 139.807 1504.4 148.734 1504.4 158.831C1504.4 168.928 1502.06 177.917 1497.38 185.797C1492.7 193.555 1486.48 199.711 1478.72 204.267C1471.09 208.7 1462.59 210.916 1453.23 210.916ZM1453.23 194.293C1459.39 194.293 1464.93 192.754 1469.86 189.676C1474.91 186.598 1478.85 182.349 1481.68 176.932C1484.63 171.514 1486.11 165.48 1486.11 158.831C1486.11 152.059 1484.63 146.087 1481.68 140.915C1478.85 135.62 1474.91 131.434 1469.86 128.355C1464.93 125.154 1459.39 123.553 1453.23 123.553C1446.95 123.553 1441.29 125.154 1436.24 128.355C1431.32 131.434 1427.38 135.62 1424.42 140.915C1421.47 146.087 1419.99 152.059 1419.99 158.831C1419.99 165.48 1421.47 171.514 1424.42 176.932C1427.38 182.349 1431.32 186.598 1436.24 189.676C1441.29 192.754 1446.95 194.293 1453.23 194.293ZM1526.8 208.7V109.147H1543.61V127.432L1541.76 124.846C1544.1 119.182 1547.67 114.996 1552.47 112.287C1557.28 109.455 1563.12 108.038 1570.02 108.038H1576.11V124.292H1567.43C1560.42 124.292 1554.75 126.508 1550.44 130.941C1546.13 135.251 1543.98 141.408 1543.98 149.411V208.7H1526.8Z" fill="black"/>
</svg>
