<svg xmlns="http://www.w3.org/2000/svg" xml:space="preserve" style="enable-background:new 0 0 124.1 123.7" viewBox="0 0 124.1 123.7"><path d="M-126.6 0c-34.3 0-62 27.7-62 61.9s27.8 61.9 62 61.9 62-27.7 62-61.9c.1-34.2-27.7-61.9-62-61.9zm-49.7 64.3c.1 1.2.2 2.3.3 3.4-.2-1.1-.3-2.2-.3-3.4zm.3 4c.1 1.1.3 2.2.5 3.3-.2-1.1-.3-2.2-.5-3.3zm49.4 43.9c-24.2 0-44.4-17.5-48.9-40.6l33.5.1 15.2-33.8L-105 91l14.3-25.7h13.8c.1-1.1.1-2.2.1-3.4 0-1.3-.1-2.6-.2-3.9h-18l-9 16.2-22.5-54.8-20.2 45-29.7-.1c0-.8-.1-1.6-.1-2.5 0-27.8 22.3-50.4 49.8-50.4s50 22.6 50 50.5c0 27.8-22.3 50.3-49.9 50.3z"/><path d="M62 0C27.8 0 0 27.7 0 61.9s27.8 61.9 62 61.9 62-27.7 62-61.9C124.1 27.7 96.3 0 62 0zM12.3 64.3c.1 1.2.2 2.3.3 3.4-.2-1.1-.3-2.2-.3-3.4zm.3 4c.1 1.1.3 2.2.5 3.3-.2-1.1-.3-2.2-.5-3.3zM62 112.2c-24.2 0-44.4-17.5-48.9-40.6l33.5.1 15.2-33.8L83.6 91l14.3-25.7h13.8c.1-1.1.1-2.2.1-3.4 0-1.3-.1-2.6-.2-3.9H93.5l-9 16.2-22.3-54.8-20.2 45-29.7-.1c0-.8-.1-1.6-.1-2.5C12.2 34 34.5 11.5 62 11.5s49.8 22.5 49.8 50.4c.1 27.8-22.2 50.3-49.8 50.3z" style="fill:#ff7300"/></svg>